<?xml version="1.0" encoding="UTF-8"?>
<svg width="604px" height="290px" viewBox="0 0 604 290" version="1.1" xmlns="http://www.w3.org/2000/svg" xmlns:xlink="http://www.w3.org/1999/xlink">
    <title>big-logo-white</title>
    <defs>
        <polygon id="path-1" points="0 0 71 0 71 98 0 98"></polygon>
        <polygon id="path-3" points="0 0 25 0 25 51 0 51"></polygon>
    </defs>
    <g id="Page-1" stroke="none" stroke-width="1" fill="none" fill-rule="evenodd">
        <g id="Large-Devices:-Desktops---12-col" transform="translate(-224.000000, -103.000000)">
            <g id="intro" transform="translate(-1.000000, 103.000000)">
                <g transform="translate(48.000000, 0.000000)" id="big-logo-white">
                    <g transform="translate(177.000000, 0.000000)">
                        <g id="Group-3" transform="translate(0.000000, 118.000000)">
                            <mask id="mask-2" fill="white">
                                <use xlink:href="#path-1"></use>
                            </mask>
                            <g id="Clip-2"></g>
                            <path d="M33.2885505,68.1865921 C34.5579085,68.4642679 35.8272665,68.7366546 37.0966246,69.0011077 C40.7842486,69.7706663 43.7279945,67.2557171 43.7306417,63.5745297 C43.7293181,59.8906978 40.782925,56.2716568 37.0966246,55.5034205 C35.8272665,55.2389674 34.5579085,54.9665807 33.2885505,54.6889049 L33.2885505,68.1865921 Z M33.2885505,49.0441531 C34.5579085,49.3218289 35.8272665,49.5942156 37.0966246,49.8586687 C40.7842486,50.6282273 43.7279945,48.1106336 43.7306417,44.4307684 C43.7293181,40.6252881 40.782925,37.1292178 37.0966246,36.3596593 C35.8272665,36.0952062 34.5579085,35.8241417 33.2885505,35.5451437 L33.2885505,49.0441531 Z M-0.000661813365,85.8983397 L-0.000661813365,0 C15.559894,4.95717371 31.1191263,8.76529861 46.6783585,11.6028806 C60.4361347,14.1098961 71.0013233,23.4702143 71,37.2363214 L71,40.1823291 C71.0013233,48.2759168 67.3163465,54.1176862 61.4182657,56.9539459 C67.3163465,61.4813833 71,68.1548577 71,76.2590235 L71,79.2050313 C71,92.9261813 60.4348111,100.009558 46.6783585,97.5012203 C31.1191263,94.6636383 15.559894,90.8555134 -0.000661813365,85.8983397 L-0.000661813365,85.8983397 Z" id="Fill-1" fill="#000000" mask="url(#mask-2)"></path>
                        </g>
                        <path d="M120.505189,136.386179 C132.003017,136.532325 143.502172,136.302476 155,135.768376 C155,153.113344 155,170.456983 155,187.801951 C154.50881,214.270465 139.356264,224.401096 116.562394,223.987899 C93.893314,223.526872 78.493845,212.670822 78,186.032246 C78,168.688607 78,151.343639 78,134 C89.540309,135.185118 101.080618,135.902566 112.619599,136.226746 L112.619599,191.834274 C112.619599,194.053048 114.342747,195.830725 116.562394,195.874569 C118.779387,195.92107 120.505189,194.21381 120.505189,191.993707 C120.505189,173.458307 120.505189,154.922907 120.505189,136.386179" id="Fill-4" fill="#000000"></path>
                        <path d="M197.264113,173.902408 C204.997831,173.113955 207.697423,169.726767 207.698746,165.450922 C207.697423,161.283191 205.000476,158.431309 197.264113,159.219763 L197.264113,173.902408 Z M239,213.276317 C218.501085,216.132155 201.314163,216.089963 197.264113,181.978127 L197.264113,218.319521 C186.176075,219.437596 175.088038,220.352624 164,221 L164,135.347279 C179.548119,134.440162 195.096238,133.00565 210.644357,131.223059 C224.269298,129.656699 234.82694,136.380971 234.82694,150.095849 L234.82694,153.032114 C234.825618,162.069008 226.847204,173.376333 211.871806,179.047136 C222.306439,178.6951 232.124702,173.477856 239,163.72107 C239,180.239046 239,196.758341 239,213.276317 L239,213.276317 Z" id="Fill-6" fill="#000000"></path>
                        <path d="M291.858107,150.977468 C301.904961,149.385051 311.951815,147.775369 322,146.196233 L322,200.674426 C315.822543,201.645282 309.646416,202.628092 303.47029,203.610901 C301.493663,201.666532 299.517036,199.720835 297.541741,197.775138 C292.723297,202.731685 286.67096,207.514249 279.382066,208.653777 C256.529067,212.223766 246.524807,187.45431 247.0173,168.046479 C247.511124,133.236429 268.512616,121.578183 296.181396,117.136947 C303.592747,115.958903 310.882973,115.288202 318.170535,115 L318.170535,141.623512 C314.217282,138.301882 306.680811,135.925874 301.493663,136.751965 C291.488072,138.348366 281.73139,144.812331 281.60627,163.934616 C281.604939,172.068029 285.435735,179.727302 292.847086,178.553243 C298.899424,177.591684 302.6051,171.57928 303.840325,164.973207 C299.391917,166.420859 294.947502,169.223194 291.858107,172.918026 L291.858107,150.977468 Z" id="Fill-8" fill="#000000"></path>
                        <path d="M330,112.741161 C347.999559,109.928849 366.000441,107.255958 384,105 L384,131.617377 C379.706078,127.963231 372.340158,126.209187 364.486261,126.327363 C364.486261,129.490218 364.486261,132.653073 364.486261,135.815928 C368.903169,134.948865 373.321399,133.121792 375.654161,130.474129 C375.654161,135.567627 375.654161,140.659797 375.654161,145.753295 C373.321399,143.719082 368.904491,143.081731 364.486261,143.578334 C364.486261,146.988163 364.486261,150.396664 364.486261,153.806492 C372.34148,151.717839 379.703433,148.171246 384,143.323394 L384,191.258839 C366.000441,193.514797 347.999559,196.187688 330,199 L330,112.741161 Z" id="Fill-10" fill="#000000"></path>
                        <path d="M425.265436,142.258964 C432.997831,141.647119 435.697423,138.441527 435.698746,134.150702 C435.698746,129.997014 432.997831,126.961525 425.265436,127.574689 C425.265436,132.469447 425.265436,137.364205 425.265436,142.258964 L425.265436,142.258964 Z M467,184.571196 C446.499762,184.929864 429.316809,184.534274 425.265436,150.335579 C425.265436,162.451161 425.265436,174.565424 425.265436,186.681006 C414.176075,187.5724 403.088038,188.69983 392,190 L392,104.337773 C407.548119,102.515425 423.096238,101.030646 438.644357,100.062771 C452.269298,99.2043422 462.82694,107.201839 462.825618,120.902416 C462.825618,121.882159 462.825618,122.860583 462.825618,123.839007 C462.825618,132.921738 454.848527,143.155633 439.871806,147.958087 C450.306439,148.175661 460.124702,143.934944 467,135.00913 L467,184.571196 Z" id="Fill-12" fill="#000000"></path>
                        <path d="M529.186968,129.977183 C536.066424,135.412139 540,144.10383 540,157.989335 C540,184.491041 525.869047,187.998192 503.383713,186.799109 C493.923799,186.311527 484.952438,185.729872 475,182.931572 C475,166.946016 475,150.961786 475,134.977555 C480.408502,142.761653 516.530941,156.408667 516.286002,144.492041 C516.161547,138.20514 510.387624,138.613225 505.84104,139.224029 C502.031918,139.865306 497.362203,140.886844 493.431275,140.764949 C481.390903,140.409861 475.246262,131.189515 475.368069,119.605452 C474.998676,97.3767191 489.255408,97.2905972 506.701634,98.3293602 C516.530941,98.9096895 526.360248,100.296915 536.067748,102.263145 L536.067748,128.94637 C530.661894,119.896942 494.783069,104.759356 494.9062,117.69752 C495.029331,122.373279 497.732921,124.062594 501.049517,124.095718 C510.510755,124.306385 519.233206,122.990707 529.186968,129.977183" id="Fill-14" fill="#000000"></path>
                        <path d="M567.735033,140.35987 C572.049409,141.275702 576.363785,142.269844 580.678161,143.347607 C580.678161,139.980264 580.678161,136.612921 580.678161,133.246905 C580.676845,131.152437 580.068964,124.223966 579.091355,118.318839 C581.37025,124.953978 583.649146,131.61168 585.928042,138.293274 C588.206937,132.822172 590.487149,127.373633 592.766044,121.948986 C591.788435,127.336469 591.180554,133.939752 591.179238,136.034221 L591.179238,146.134922 C595.452825,147.33745 599.726413,148.624924 604,150 L604,117.603428 C599.279054,116.085004 594.556793,114.672765 589.835848,113.362726 C588.533246,116.492483 587.230644,119.628877 585.928042,122.773235 C584.62544,118.937358 583.322838,115.109444 582.020235,111.289494 C577.258501,110.081657 572.496767,108.974695 567.735033,107.963297 L567.735033,140.35987 Z M546,113.977263 C546,110.652393 546,107.326197 546,104 C551.860393,104.878668 560.164152,106.367891 566.146911,107.630147 C566.145596,110.956344 566.146911,114.28254 566.146911,117.60741 C565.170618,116.542921 563.949593,115.55276 562.483837,114.770984 C563.706177,119.817353 564.560105,128.245665 564.560105,130.95467 C564.560105,133.869406 564.560105,136.785469 564.560105,139.700205 C561.711486,139.121505 558.86155,138.575988 556.012931,138.063652 C553.203784,137.557954 550.394637,137.085437 547.586806,136.643449 C547.58549,133.727386 547.58549,130.81265 547.586806,127.896587 C547.586806,125.187581 548.318368,117.048619 549.540709,112.442912 C548.074953,112.697752 546.852612,113.245924 546,113.977263 L546,113.977263 Z" id="Fill-16" fill="#000000"></path>
                        <path d="M126.02959,83.0506455 C123.680989,90.1404964 119.476688,105.065734 127.513617,105.094764 C132.582491,105.092125 136.662901,96.6919778 138.515937,92.2464711 C139.505733,89.7776248 139.753515,88.1796703 140.988428,88.1519601 C141.483992,88.1387648 142.100783,88.2469665 142.842797,88.7180398 C150.878393,92.8930423 152.857985,98.398134 151.251399,104.844053 C148.283343,115.910976 132.086927,121.282795 121.94918,120.988539 C106.001877,120.645461 101.058227,108.189069 103.653277,94.4065466 C106.497441,75.7668232 121.827953,35.8443517 145.192729,35.0130459 C156.937063,34.6620501 167.939383,41.3824318 162.625391,56.5306708 C161.141364,61.0263198 158.173309,68.6505816 157.925527,73.0696977 C157.677745,76.8765505 158.2972,77.4637427 154.834912,77.9941949 C135.549214,80.573882 139.753515,66.8151112 142.96802,55.2837121 C143.710034,52.5681132 143.338361,51.599576 142.348565,51.6259666 C136.413787,51.802784 127.63884,78.1710124 126.02959,83.0506455" id="Fill-18" fill="#000000"></path>
                        <path d="M183.333529,102.438309 C191.703309,101.719891 197.981308,80.9681161 200.074416,74.3416773 C204.138601,61.3384532 207.459984,45.9409467 200.68988,46.6713157 C193.795091,47.3910611 191.703309,57.6786405 194.533913,60.2415717 C194.783282,60.4646663 194.902661,60.6983844 194.781956,60.9560054 C194.657271,65.7751129 190.471055,68.2889102 186.040775,67.940989 C183.700951,74.4465849 172.49924,103.330687 183.333529,102.438309 M159.08239,108.190961 C154.036646,90.7059268 167.698886,53.2021425 178.039743,47.0471237 C183.208845,35.6785982 193.42767,31.4623772 204.259306,30.2672279 C223.462049,28.1026798 228.141697,39.3012285 225.186409,56.1143229 C221.000192,80.7330701 206.351088,116.414916 178.655207,118.84638 C169.17653,119.604636 161.790962,117.785354 159.08239,108.190961" id="Fill-20" fill="#000000"></path>
                        <path d="M274.598599,104.546912 C274.353116,105.81948 273.614016,106.306168 272.75151,106.439142 C272.137141,106.534884 271.396713,106.526906 270.781017,106.251648 C267.332322,105.427205 263.147181,105.576136 258.590498,106.259626 C248.493877,107.780857 236.791669,111.783396 228.049844,112.924319 C221.646073,113.76206 219.430098,107.482994 219.061211,102.101507 C218.937806,100.14146 218.937806,99.2784538 219.676907,97.2120267 C226.080678,77.4067725 230.146396,54.5298024 235.561603,34.788376 C237.285287,28.3843137 244.428159,24.1876316 251.078739,23.2089377 C253.664929,22.8312895 256.248464,22.9416586 258.343689,23.7368474 C260.312855,24.4296456 259.698486,26.2487397 258.590498,27.77263 C257.48251,29.303169 247.753449,70.603786 242.58107,91.3185873 C248.739359,90.1989402 253.788333,88.5939354 260.190777,87.6311984 C270.41213,86.087362 276.69117,94.7134318 274.598599,104.546912 Z" id="Fill-22" fill="#000000"></path>
                        <path d="M326.959697,34.7859921 C323.531026,44.0886684 318.263963,56.6496088 313.487842,67.9059137 C317.040568,65.1157757 321.569899,63.0344765 325.980454,62.2152558 C326.835642,50.9735798 327.329223,39.9114409 326.959697,34.7859921 M279.928298,104.254841 C277.111983,103.712241 277.847076,101.991345 279.194525,99.4339406 C285.929133,85.9154695 308.098043,40.6269291 314.833971,24.9872617 C316.426892,21.2768303 318.141227,18.65825 320.223769,16.7219102 C324.388853,12.9729117 331.859874,11.5472549 336.881466,11.020613 C340.434193,10.7200548 339.943251,13.7588848 340.065987,16.7019616 C340.678344,38.6985687 345.454465,61.2989521 344.964843,83.2197547 C344.597957,96.2341923 335.16581,97.5348381 323.531026,99.3820743 C319.856883,99.9645721 320.223769,96.6983287 321.081597,94.2167284 C322.304992,90.9371859 323.40961,84.8382475 324.388853,77.6487882 C318.875,77.7804486 313.611897,79.9814392 311.773506,83.3607245 C311.159829,84.4459259 310.794262,84.7531337 309.813699,84.7863813 C308.833136,84.8196289 307.731157,84.3807607 307.1188,82.8739798 C303.323242,91.874768 301.362116,102.809236 290.216953,104.716318 C286.786961,105.265568 283.235554,104.96634 279.928298,104.254841" id="Fill-24" fill="#000000"></path>
                        <path d="M363.190337,18.2428828 C363.516095,16.8226749 363.843172,15.4011208 364.168929,13.9809128 C366.127432,7.95411568 369.920465,5.5471661 373.348174,5.0827379 C377.631821,4.4985007 381.547508,7.1194911 380.936877,9.44701674 C380.324927,12.0249297 379.711659,14.6028427 378.979693,17.1982559 C377.754475,22.2342729 376.042599,30.0730131 370.655068,32.3116916 C368.329923,33.2553559 364.780879,33.7574768 365.270175,30.1901298 C365.638136,28.0147212 366.004778,26.0883539 366.37142,23.5387104 C363.923622,22.634085 362.454415,21.0967604 363.190337,18.2428828" id="Fill-26" fill="#000000"></path>
                        <path d="M377.623162,72.8662379 C378.486729,72.7551309 379.599121,72.856979 381.203839,72.9006282 C389.72508,72.8001028 402.690564,68.944424 415.287469,63.8625996 C417.015934,63.2131525 416.520947,62.2766788 415.163722,62.2780015 C400.592189,61.4936387 380.956346,52.1765198 388.860182,33.9060252 C396.146614,17.2042562 407.259886,1.3133041 421.214016,0.118903418 C432.946023,-1.01862104 443.935548,6.00625384 438.626406,21.1697194 C437.144104,25.5558021 434.1795,33.2433511 433.932006,37.8040306 C433.684512,41.5049532 434.301916,42.1927586 430.846317,42.6861268 C411.583045,46.0510829 415.779796,32.313491 418.991893,20.4422328 C419.731714,17.7994725 419.361803,16.7267605 418.373159,16.8140589 C414.668735,17.1381211 409.358262,29.5649145 408.248531,32.3796261 C402.196907,47.1185041 432.203541,51.2532732 433.932006,58.0572567 C435.414308,63.976352 434.798235,69.7697905 429.240268,73.9852445 C420.595281,80.4982334 405.901331,87.3921607 394.170655,88.766449 C384.044696,89.9291048 376.14086,86.9331828 376.018444,75.6518501 C375.894697,73.5804975 376.389685,73.0249623 377.623162,72.8662379" id="Fill-28" fill="#000000"></path>
                        <path d="M56.5059394,268.998441 C49.4726154,269.13695 50.261855,260.000402 52.9168097,260.000402 C54.6402244,260.277421 57.080411,260.48455 59.3769797,260.415931 C64.328503,260.34604 68.4209541,260.000402 73.5160953,260.000402 C80.4782692,259.930512 79.7601797,268.998441 77.1052251,268.998441 C75.3818104,268.791312 72.9429414,268.584183 70.5739049,268.584183 C65.6935318,268.721422 61.6010806,268.998441 56.5059394,268.998441" id="Fill-30" fill="#000000"></path>
                        <path d="M141.091151,246.637868 C140.077476,246.637868 139.569974,249.256833 142.972362,250.784674 C142.682741,247.658209 141.742135,246.637868 141.091151,246.637868 M137.617022,249.330287 C132.18994,252.53154 129.728158,263.73526 134.287703,266.717488 C134.938687,267.154205 135.662741,267.371895 136.241984,267.371895 C139.499561,267.371895 141.888274,261.844157 142.75581,256.532774 C140.222287,255.294742 138.268006,253.041711 137.617022,249.330287 M137.40047,240.818985 C138.051454,240.818985 139.716113,240.891104 140.150545,242.346826 C141.018081,241.326485 142.248308,240.818985 143.914296,240.818985 C148.978686,240.818985 150.788156,245.183481 151.006037,250.421411 C154.841529,248.967024 158.242588,245.693652 159.039711,240.091124 C159.184522,239.289809 159.545885,239 160.123799,239 C161.427096,239 163.670998,240.964557 164.321982,242.273372 C167.50649,248.821452 158.893572,255.950485 150.572933,257.332753 C148.833876,268.027638 143.479864,277.121229 131.321076,277.193347 C109.898386,277.193347 123.793575,240.818985 137.40047,240.818985 M122.636417,289.998362 C115.544677,290.143934 116.340472,280.540173 119.018806,280.540173 C120.683465,280.832653 123.142591,280.978225 125.531304,280.978225 C130.452212,280.904771 134.578653,280.540173 139.716113,280.540173 C146.809182,280.394601 146.012059,289.998362 143.333725,289.998362 C141.597324,289.707217 139.20994,289.56298 136.821227,289.56298 C131.900319,289.635099 127.775206,289.998362 122.636417,289.998362 M94.5564193,255.006268 C91.5180509,265.33522 89.5637702,281.19458 88.6218361,284.469288 C87.4646787,288.470521 83.338237,289.998362 79.2861933,289.998362 C77.8394145,289.998362 76.4643767,289.780671 75.2341497,289.489527 C73.4964209,288.980692 73.9308531,288.033804 74.5114246,286.578082 C79.5758148,274.938981 81.3852848,259.442883 84.9324836,246.420177 C86.740625,240.091124 93.399262,239.073454 99.0442237,239.073454 C102.301801,239.073454 103.603769,240.163242 103.312819,244.164476 C102.952785,249.621431 103.458958,264.171977 104.036873,273.046541 C106.280775,264.607358 107.07657,251.949251 109.247402,244.237929 C110.189336,240.745531 114.821952,239 118.945736,239 C120.755206,239 122.491607,239.363263 123.793575,240.01767 C124.953389,240.599959 124.590698,241.545511 123.939714,242.42028 C121.551001,245.54808 114.892364,275.084553 112.64979,283.231256 C110.840321,289.998362 105.2671,289.924908 99.4786559,289.924908 C97.8139967,289.924908 95.2074034,289.707217 95.4983534,286.069247 C96.0762678,277.703518 95.280473,264.245431 94.5564193,255.006268" id="Fill-32" fill="#000000"></path>
                        <g id="Group-36" transform="translate(159.000000, 239.000000)">
                            <mask id="mask-4" fill="white">
                                <use xlink:href="#path-3"></use>
                            </mask>
                            <g id="Clip-35"></g>
                            <path d="M5.12933355,51 C3.88442682,51 2.56692293,50.7809726 1.24807464,50.4177076 C-0.509045344,49.9809883 -0.0694292493,49.0354309 0.515381152,47.5796999 C5.12933355,37.1772331 7.98616597,23.7177312 11.1347314,11.7139602 C9.66934441,12.2227983 8.49837922,12.8037552 7.83962727,13.3139288 C7.32741403,13.6785293 6.52077899,13.8975568 6.00856574,13.0962369 C0.589322696,4.22028439 14.7955101,0.0734543169 21.1679268,0 C23.7303375,0 25.7079377,3.56453767 24.7574528,5.8215885 C21.3884071,14.3329405 14.4298355,40.3785058 13.0383901,45.4695577 C11.940022,49.4708147 8.71751507,51 5.12933355,51" id="Fill-34" fill="#000000" mask="url(#mask-4)"></path>
                        </g>
                        <path d="M188.938377,279.571919 C189.43901,279.571919 190.081183,279.714841 191.009056,279.857763 C195.935438,280.429452 203.43182,279.072346 210.713271,276.78559 C211.711915,276.501057 211.427524,275.929368 210.642501,275.858562 C202.218245,274.643067 190.866206,267.786732 195.434805,257.7153 C199.648244,248.501403 206.072591,240.000805 214.139065,240.000805 C220.921194,239.931311 227.276082,244.359279 224.205448,253.001488 C223.349655,255.501972 221.635447,259.857823 221.493907,262.499919 C221.349746,264.643753 221.707528,265.071208 219.70893,265.215442 C208.570511,266.285392 210.998972,258.428601 212.85472,251.715187 C213.283272,250.215159 213.068341,249.572664 212.498249,249.572664 C210.355489,249.572664 207.286166,256.499805 206.643993,258.073262 C203.146119,266.357509 220.493953,270.358021 221.493907,274.286417 C222.349701,277.787357 221.993229,281.142753 218.781056,283.357392 C213.782594,286.786216 205.287568,290 198.505439,290 C192.651184,290 188.082584,287.642438 188.010504,281.073258 C187.939734,279.857763 188.224124,279.571919 188.938377,279.571919" id="Fill-37" fill="#000000"></path>
                        <path d="M220.529617,286.571121 C225.789472,274.501206 228.350224,258.571016 232.118264,245.428511 C233.114112,241.85802 237.237159,240 241.075678,240 C242.570103,240 244.061918,240.285849 245.271815,240.928354 C246.195878,241.429246 246.124094,242.142557 245.697301,242.85718 C242.92511,247.428144 236.952631,275.858334 234.962239,283.357285 C233.681863,288.072485 229.699775,290 225.435769,290 C224.013129,290 222.590488,289.784958 221.239633,289.429613 C219.533769,288.930033 219.890082,288.000367 220.529617,286.571121" id="Fill-39" fill="#000000"></path>
                        <path d="M256.360676,255.004531 C253.354147,265.33542 251.350232,281.195705 250.490848,284.470604 C249.346317,288.47207 245.193942,290 241.186112,290 C239.826078,290 238.466044,289.780961 237.24924,289.491135 C235.530473,288.980935 235.889206,288.035328 236.533087,286.580856 C241.543532,274.941076 243.333258,259.442739 246.840437,246.419275 C248.486933,240.089852 255.287103,239.070787 260.799512,239.070787 C263.947958,239.070787 265.309306,240.16331 265.022845,244.164777 C264.664111,249.622051 265.164762,264.172109 265.666726,273.048527 C267.957102,264.607516 268.673255,251.948671 270.892673,244.236899 C271.750743,240.744297 276.331496,239 280.412912,239 C282.273597,239 283.99105,239.361948 285.280126,240.016394 C286.424657,240.598717 285.996279,241.545659 285.422043,242.417808 C282.98975,245.547126 276.403768,275.085321 274.255308,283.233835 C272.394624,290 266.955802,289.926542 261.22789,289.926542 C259.581395,289.926542 257.004557,289.708839 257.22006,286.071992 C257.792983,277.704439 257.004557,264.245568 256.360676,255.004531" id="Fill-41" fill="#000000"></path>
                        <path d="M289.591488,267.856465 C288.205209,271.998549 285.724642,280.712791 290.466115,280.712791 C293.458333,280.712791 295.866573,275.857414 296.960863,273.284838 C297.543501,271.85694 297.690835,270.927298 298.419468,270.927298 C298.712797,270.927298 299.075774,270.998103 299.513758,271.285256 C304.25657,273.856521 305.423187,277.142391 304.474892,280.855712 C302.725637,287.212415 293.166344,290.069522 287.183248,289.998717 C277.771289,289.926601 274.852738,282.92741 276.38635,274.78354 C278.064618,263.855991 287.109581,240.072116 300.900036,240 C307.831427,240 314.326174,244.357121 311.187962,253.000558 C310.313334,255.571823 308.5614,259.927633 308.415405,262.498898 C308.269411,264.714828 308.635067,265.070163 306.591143,265.2852 C295.208928,266.35514 297.690835,258.498424 299.587425,251.785075 C300.025408,250.214256 299.805747,249.642572 299.221769,249.642572 C295.720579,249.642572 290.539782,264.998047 289.591488,267.856465" id="Fill-43" fill="#000000"></path>
                        <path d="M346.472554,250.929141 C346.255654,251.643764 345.820524,251.928302 345.313537,251.928302 C344.950263,251.928302 344.58832,251.785377 344.226376,251.643764 C342.195768,250.857023 338.789242,250.428249 335.237673,250.428249 C331.53973,250.428249 327.626218,250.857023 324.871723,251.785377 C324.001462,254.428826 323.059344,257.356813 322.190414,260.499843 C323.639518,260.356918 325.016766,260.213993 326.24897,260.213993 C332.338135,260.213993 336.034747,262.499476 334.078656,269.428039 C333.788569,270.356394 332.990165,270.285587 332.411322,270.142662 C331.10593,269.641771 328.205061,269.286426 325.233666,269.286426 C323.276244,269.286426 321.246966,269.428039 319.579632,269.858124 C318.710702,273.214885 317.912297,276.285797 317.260267,278.571279 C321.030067,278.499161 324.074649,277.928774 327.844448,277.928774 C333.859095,277.928774 337.628895,283.572328 336.324834,288.999528 C336.17979,289.714151 335.74466,290 335.237673,290 C334.874399,290 334.4406,289.855764 334.078656,289.714151 C332.048048,288.857915 329.583639,288.642872 326.901,288.642872 C321.030067,288.642872 314.070641,290 308.924925,290 C305.445212,290 304.503095,283.99979 305.228312,281.785115 C308.633507,271.570597 312.476494,255.214256 314.724002,247.000682 C315.811163,243.215147 317.912297,241.85802 320.813167,241.286321 C324.943579,240.500892 335.09263,240 339.296229,240 C345.313537,240.072118 348.284932,244.570964 346.472554,250.929141" id="Fill-45" fill="#000000"></path>
                        <path d="M383.892637,288.999528 C383.746606,289.714151 383.308512,290 382.798073,290 C382.432325,290 381.99557,289.855764 381.631162,289.714151 C379.368347,288.785797 375.864936,288.498636 372.069462,288.498636 C364.552201,288.498636 356.086405,289.784958 355.211557,290 C353.094773,290 352.072554,286.999895 352,284.642295 C351.927863,280.214256 370.684175,265.357967 377.396255,258.143554 C381.3391,253.927935 379.513039,249.356971 376.156999,249.356971 C373.967869,249.356971 371.120929,251.356603 368.858114,256.714308 C368.201643,258.143554 368.055612,259.070597 367.326795,259.070597 C367.107078,259.070597 366.74133,258.99979 366.23089,258.713941 C361.560569,256.14261 360.392318,252.857967 361.342192,249.143239 C363.020882,242.785062 372.653587,240 378.638191,240 C387.980174,240.072118 391.117837,247.643187 389.658864,254.999213 C387.760457,264.071646 375.646559,271.286059 369.734302,278.499161 C376.447721,278.357547 386.884269,277.214151 383.892637,288.999528" id="Fill-47" fill="#000000"></path>
                        <path d="M397.31577,265.357967 C395.436858,273.071961 395.508511,280.641718 399.628584,280.713836 C403.459389,280.785954 407.507808,273.071961 409.531355,265.215042 C411.554901,257.356813 411.554901,249.429088 407.291521,249.356971 C403.386409,249.356971 399.267663,257.428931 397.31577,265.357967 M409.747642,240 C431.215808,240 422.975663,290 396.665582,290 C375.62999,290 384.882572,240 409.747642,240" id="Fill-49" fill="#000000"></path>
                        <path d="M445.892637,288.999528 C445.746606,289.714151 445.308512,290 444.798073,290 C444.432325,290 443.99557,289.855764 443.631162,289.714151 C441.368347,288.785797 437.864936,288.498636 434.069462,288.498636 C426.552201,288.498636 418.086405,289.784958 417.211557,290 C415.094773,290 414.072554,286.999895 414,284.642295 C413.927863,280.214256 432.684175,265.357967 439.396255,258.143554 C443.3391,253.927935 441.513039,249.356971 438.156999,249.356971 C435.967869,249.356971 433.120929,251.356603 430.858114,256.714308 C430.201643,258.143554 430.055612,259.070597 429.326795,259.070597 C429.107078,259.070597 428.74133,258.99979 428.23089,258.713941 C423.560569,256.14261 422.392318,252.857967 423.342192,249.143239 C425.020882,242.785062 434.653587,240 440.638191,240 C449.980174,240.072118 453.117837,247.643187 451.658864,254.999213 C449.760457,264.071646 437.646559,271.286059 431.734302,278.499161 C438.447721,278.357547 448.884269,277.214151 445.892637,288.999528" id="Fill-51" fill="#000000"></path>
                        <path d="M459.31577,265.357967 C457.436858,273.071961 457.508511,280.641718 461.628584,280.713836 C465.459389,280.785954 469.507808,273.071961 471.531355,265.215042 C473.554901,257.356813 473.554901,249.429088 469.291521,249.356971 C465.386409,249.356971 461.267663,257.428931 459.31577,265.357967 M471.747642,240 C493.215808,240 484.975663,290 458.665582,290 C437.62999,290 446.882572,240 471.747642,240" id="Fill-53" fill="#000000"></path>
                        <path d="M488.506268,268.998441 C481.47173,269.13695 482.262275,260.000402 484.917191,260.000402 C486.640581,260.277421 489.080732,260.48455 491.377267,260.415931 C496.328718,260.34604 500.421109,260.000402 505.516176,260.000402 C512.478248,259.930512 511.760169,268.998441 509.105253,268.998441 C507.381863,268.791312 504.94303,268.584183 502.574028,268.584183 C497.693726,268.721422 493.601335,268.998441 488.506268,268.998441" id="Fill-55" fill="#000000"></path>
                    </g>
                </g>
            </g>
        </g>
    </g>
</svg>